# xmcd
#
# Track frame offsets:
#	150
#	15495
#	32519
#	48473
#	62248
#	76894
#	93709
#	107751
#	122907
#	141187
#	155288
#	175265
#	190976
#	207122
#
# Disc length: 2949 seconds
#
# Revision: 0
# Processed by: cddbd v1.5.2PL0 Copyright (c) Steve Scherf et al.
# Submitted via: EasyCDDAExtractor 11.5.3.1
#
DISCID=ba0b830e
DTITLE=Various Artist - Mr Music Country  02 2009
DYEAR=1900
DGENRE=Country
TTITLE0=K.C. Williams - Charley's boots
TTITLE1=Tommy Alverson and Leon Rausch - Deep water
TTITLE2=Bill Emerson and The Sweet Dixie Band - A little rain
TTITLE3=Billy Don Burns - Haggard and Hank (Extended Ver.)
TTITLE4=Red Jenkins and Becky Hobbs - Most wanted man in Tennessee
TTITLE5=Don Williams - Leaving for the Flatlands
TTITLE6=Norville Dollar - Step inside my world
TTITLE7=T.Jae Christian and T. Graham Brown - The vanishing breed
TTITLE8=Stan Martin and Amber Casares - Missing you blues
TTITLE9=Brittany Clarke - Start talkin' love
TTITLE10=Larry Sparks - John Deere Tractor
TTITLE11=Swinging Doors (Lead-Maria Erixon) - Lonesome mother blues
TTITLE12=Mel McDaniel and Oklahoma Wind - Shoeshine man
TTITLE13=Billy Mata_Texas Tradition_Vicki Gillespie - Closed for repairs
EXTD=
EXTT0=
EXTT1=
EXTT2=
EXTT3=
EXTT4=
EXTT5=
EXTT6=
EXTT7=
EXTT8=
EXTT9=
EXTT10=
EXTT11=
EXTT12=
EXTT13=
PLAYORDER=
